<?xml version="1.0" encoding="utf-8"?>
<svg version="1.1" class="vandalsquad-tag" xmlns="http://www.w3.org/2000/svg" xmlns:xlink="http://www.w3.org/1999/xlink"
	 width="570.109px" height="165.554px" viewBox="135.697 214.54 570.109 165.554">
  <g>
    <g>
      <path d="M170.726,296.875l-5.086,2.134c0,0-3.159,20.895-25.565,22.348l-4.378,9.5c0,0,46.897,3.514,72.365,34.537
        l3.999-16.854c0,0-33.599-78.714-30.405-125.959l-9.356-8.04c0,0-8.066,52.39,15.784,116.043c0,0-14.766-6.25-26.078-7.029
        C162.003,323.554,168.732,322.149,170.726,296.875L170.726,296.875z"/>
    </g>
  </g>
  <g>
    <g>
      <path d="M237.938,335.214l-3.096-6.127c-1.372,0.946-2.145,3.586-12.223,13.862
        c-10.078,10.279-28.773,2.203-23.717-24.617c5.059-26.821,28.713-17.553,28.713-17.553s-2.55-28.453-7.607-18.646
        c-5.055,9.809-24.904,31.044-24.904,31.044l-2.363-7.767c0,0,7.747-10.37,26.539-38.652
        c18.794-28.282,25.139,56.365,25.139,56.365L237.938,335.214L237.938,335.214z M209.871,319.433
        c-3.385,18.213,9.989,17.404,19.063-1.252C228.934,318.181,213.254,301.218,209.871,319.433L209.871,319.433z"/>
    </g>
  </g>
  <g>
    <g>
      <path d="M235.285,351.787c0,0,12.112-95.931,4.115-121.598l10.053-9.612c0,0,9.342,42.4,23.123,73.634
        c0,0-5.827-29.92-6.094-48.612l10.96-7.242l0.475,13.363c0,0,19.936,86.851,25.961,94.761l-10.646,16.26
        c0,0-36.627-103.52-38.1-74.555c-1.475,28.963-3.547,56.238-3.547,56.238L235.285,351.787L235.285,351.787z"/>
    </g>
  </g>
  <g>
    <g>
      <path d="M330.89,295.835c0,0-15.136,20.087-18.276,23.634c-3.142,3.545-1.608,6.942-1.608,6.942l-28.331,7.892
        l3.836-21.197c4.143-3.508,4.667-16.83,4.667-16.83l3.823-37.88l3.809-3.519l-2.174-4.088l0.981-7.97
        c0,0,12.542,11.836,20.595,19.159c8.054,7.323,15.712,7.624,17.729,15.71C337.958,285.772,330.89,295.835,330.89,295.835
        L330.89,295.835z M318.366,274.995c-3.559-2.809-11.649-9.133-11.649-9.133l-2.134,37.279c0,0,15.924-14.719,17.774-19.315
        C324.206,279.229,321.926,277.803,318.366,274.995L318.366,274.995z"/>
    </g>
  </g>
  <g>
    <g>
      <path d="M363.779,275.58c0,0,11.124,7.243,9.59,20.794l-11.425,10.558c0,0,6.379-14.561-5.244-24.424
        c0,0-11.344,8.561-14.084,12.055c0,0-0.811,30.792-3.539,39.092l-8.287-8.133c0,0,3.104-58.521-11.139-78.099l6.796-20.147
        c0,0,8.57,11.146,10.761,26.644c0,0,4.958,1.195,18.866,13.953c0,0,6.631-5.744,13.847-11.064l14.167,6.162
        C384.09,262.97,368.963,270.981,363.779,275.58L363.779,275.58z M340.009,269.242c1.164,6.049,1.249,14.059,1.249,14.059
        l6.709-7.742L340.009,269.242L340.009,269.242z"/>
    </g>
  </g>
  <g>
    <g>
      <path d="M396.378,244.799l-9.152,2.764c0,0-14.722,49.271-32.182,68.389l-3.98,12.271
        c0,0,44.88-18.205,85.941,51.871l9.588-23.174c0,0-19.002-22.267-24.174-54.177c0,0-0.794-21.99-6.876-26.481l-21.17,24.181
        l0.743,7.99l13.069-7.437c0,0,0.547,19.394,4.503,28.123c0,0-24.907-16.957-38.489-15.914
        C374.199,313.208,390.816,280.506,396.378,244.799L396.378,244.799z"/>
    </g>
  </g>

  <g>
    <g>
      <path d="M445.339,256.634l1.039,12.98l13.266-4.945l5.4-28.521c0,0-53.743,9.644-61.558,36.584
        c-7.814,26.943,44.371,15.508,59.355,17.979c14.981,2.471,38.664,5,24.801,14.394c-13.863,9.396-35.885,26.908-36.525,12.271
        c-0.643-14.64-1.479-14.697-1.479-14.697l-13.445-4.324c0,0,2.297,18.965,0.723,29.234c-1.573,10.269,11.818,27.219,11.818,27.219
        s10.23-13.582,26.428-24.213c16.197-10.633,53.039-31.299,29.377-41.965c-23.664-10.663-42.954-11.758-55.844-12.114
        c-12.889-0.355-40.14-0.053-18.217-12.241C430.477,264.274,435.445,261.542,445.339,256.634L445.339,256.634z"/>
    </g>
  </g>
  <g>
    <g>
      <path d="M519.259,279.017c0,0,2.395,9.711-8.179,16.253c-10.571,6.544-22.455,31.513-2.524,31.53
        c19.93,0.016,22.961-3.138,22.961-3.138s11.098,13.699,11.215,15.953l5.285-15.057l-7.264-4.447c0,0,22.62-10.174,8.991-27.699
        c-13.631-17.528-29.196-35.474-29.774-43.091l-5.922,16.135c0,0,10.176,14.755,17.161,23.11
        c6.984,8.354,11.636,17.946-3.547,22.196c-15.18,4.248-17.455,0.721-9.315-7.119C526.482,295.806,532.746,290.639,519.259,279.017
        L519.259,279.017z"/>
    </g>
  </g>
  <g>
    <g>
      <path d="M561.689,274.462c0,0,3.193,10.328-3.09,15.772c-6.283,5.445-17.312,18.41-18.088,25.369
        c0,0,14.725,2.174,26.715,11.164c11.992,8.992,24.184,15.191,23.885,23.309c0,0,8.717-15.938,1.851-29.895
        c-6.865-13.957-7.886-19.361-6.294-41.698c1.591-22.334,1.068-30.79,3.104-35.695l-9.42-17.506c0,0-9.307,51.811-6.848,68.54
        c2.459,16.733,5.473,25.646,5.473,25.646s-11.994-8.992-20.592-10.447c0,0,1.516-5.504,5.186-9.73
        c3.67-4.229,7.199-10.431,7.021-15.775L561.689,274.462L561.689,274.462z"/>
    </g>
  </g>
  <g>
    <g>
      <path d="M641.441,333.177l-12.385,8.377l-1.818-9.949c-11.789,7.859-34.055,5.15-41.537-4.082
        c-7.483-9.232,1.354-18.984,13.9-25.666c12.547-6.685,26.574,9.188,26.574,9.188s-1.261-13.84-1.342-20.579
        c-0.082-6.741-34.392,13.822-34.392,13.822l1.195-12.821c0.004-0.013,0.43-0.379,22.438-11.59
        c22.722-11.569,23.74-2.235,22.806,10.886C635.949,303.884,641.441,333.177,641.441,333.177L641.441,333.177z M600.382,314.537
        c-7.201,6.502-3.031,11.011,6.008,10.25c9.037-0.76,9.354-5.227,9.354-5.227S607.58,308.035,600.382,314.537L600.382,314.537z"/>
    </g>
  </g>
  <g>
    <g>
      <path d="M662.779,289.799l14.264,0.736c0,0-13.7,18.946-21.94,24.252c0,0,22.305-1.778,35.115,11.48
        c0,0,3.225-33.442-10.761-38.088c-13.985-4.643-53.67-15.046-60.297-28.426s-2.737-20.68,4.064-25.527
        c0,0-5.543,18.688,27.977,28.933c33.519,10.244,48.402,14.109,51.396,31.159c2.998,17.051,3.641,35.616,2.965,41.18
        c-0.678,5.563-7.834,27.224-7.834,27.224s-6.711-31.906-35.199-33.937c-28.49-2.028-35.135-3.344-35.135-3.344
        s2.094-5.746,10.393-11.889C646.087,307.409,660.166,294.945,662.779,289.799L662.779,289.799z"/>
    </g>
  </g>
</svg>
